<?xml version="1.0" encoding="UTF-8"?> <!-- Creator: CorelDRAW X8 --> <svg xmlns="http://www.w3.org/2000/svg" xmlns:xlink="http://www.w3.org/1999/xlink" xml:space="preserve" width="186.334mm" height="39.3343mm" style="shape-rendering:geometricPrecision; text-rendering:geometricPrecision; image-rendering:optimizeQuality; fill-rule:evenodd; clip-rule:evenodd" viewBox="0 0 18330 3869"> <defs> <style type="text/css"> <![CDATA[ .fil2 {fill:#332C2B} .fil4 {fill:#332C2B} .fil3 {fill:#C92B31} .fil0 {fill:#332C2B;fill-rule:nonzero} .fil1 {fill:#C92B31;fill-rule:nonzero} ]]> </style> </defs> <g id="图层_x0020_1"> <metadata id="CorelCorpID_0Corel-Layer"></metadata> <g id="_85861184"> <path class="fil0" d="M13436 1221l-118 0 -107 313c-9,26 -14,54 -16,83 -1,17 2,36 9,56l-537 0c25,-30 44,-57 56,-80 12,-23 26,-56 41,-100l253 -732c8,-24 14,-52 15,-82 1,-18 -2,-36 -9,-56l895 0c67,0 113,2 138,6 25,4 49,13 73,27 30,18 54,42 72,71 18,29 27,58 25,86 -1,22 -6,45 -14,69l-61 178c-18,46 -29,75 -36,86 -6,11 -16,22 -31,32 -39,30 -93,44 -162,44 -8,0 -18,0 -31,-1l59 332c5,28 12,50 21,65 8,16 24,34 47,55l-506 0 -76 -452zm-55 -179l223 0c38,0 64,-4 79,-12 15,-9 27,-27 36,-54l36 -105c5,-14 8,-26 8,-35 1,-27 -21,-40 -68,-40l-230 0 -84 246z"></path> <path class="fil1" d="M4283 3869l653 -1989 648 0 139 389 236 659 316 -1048 567 0 -653 1989 -554 0 -423 -1198 -368 1198 -561 0zm3931 -1526l-501 1526 -686 0 501 -1526 -443 0 153 -463 1571 0 -152 463 -443 0zm-7 1526l1341 -1989 728 0 50 1989 -706 0 -2 -399 -603 0 -256 399 -552 0zm1075 -828l362 0 9 -580 -371 580zm1395 828l653 -1989 1093 0c293,0 496,48 611,144 114,97 139,243 75,437 -44,134 -114,247 -211,340 -97,92 -216,159 -357,199l118 869 -735 0 -85 -754 -234 0 -248 754 -680 0zm1511 -1565l-317 0 -128 389 326 0c80,0 151,-18 213,-54 63,-37 103,-84 122,-140 21,-66 14,-115 -22,-147 -36,-32 -101,-48 -194,-48zm919 1565l653 -1989 1687 0 -152 463 -1032 0 -96 293 847 0 -141 431 -847 0 -111 337 1044 0 -153 465 -1699 0zm2260 -609l663 -105c-4,84 24,147 81,188 57,41 147,61 267,61 75,0 139,-13 194,-38 54,-26 88,-59 101,-99 26,-78 -52,-137 -234,-175 -63,-14 -114,-26 -152,-35 -250,-61 -417,-139 -502,-231 -85,-93 -102,-217 -51,-371 64,-196 204,-355 420,-477 216,-122 469,-183 758,-183 219,0 389,43 512,128 123,85 193,208 212,371l-621 147c-9,-71 -37,-122 -84,-154 -47,-32 -117,-48 -210,-48 -65,0 -124,14 -177,43 -53,28 -86,62 -99,102 -21,65 58,117 237,155 48,11 86,19 113,26 17,3 42,9 75,16 226,52 377,114 456,187 53,50 87,111 100,183 13,72 5,152 -24,241 -27,84 -72,164 -135,240 -63,76 -139,143 -230,202 -118,77 -247,135 -387,175 -140,40 -286,60 -439,60 -280,0 -493,-52 -640,-158 -146,-105 -214,-256 -204,-451z"></path> <g> <path class="fil2" d="M2184 2375c140,-4 278,5 414,26 -37,0 -74,0 -112,1 -894,29 -1442,598 -1822,1467l600 0c446,-742 1026,-1240 1941,-1270 42,-1 85,-1 127,-1 -154,-21 -312,-30 -472,-24 -959,31 -1689,519 -2198,1295l-662 0c495,-880 1286,-1464 2184,-1494zm-904 1494c598,-690 1381,-1105 2466,-1141 193,-6 383,2 569,22 -51,-1 -102,0 -153,2 -1053,34 -1531,450 -2011,1117l-871 0z"></path> <path class="fil3" d="M2816 623l978 0 11 1110 -1014 238 -7 -230 -297 301 -1328 312 1657 -1731zm1002 2420l8 826 -977 0 -18 -596 987 -230z"></path> </g> <path class="fil0" d="M17707 623l-37 217c-25,-16 -51,-28 -78,-34 -26,-7 -61,-10 -105,-10l-420 0c-29,0 -49,2 -61,6 -12,4 -23,12 -32,24 -4,7 -10,22 -19,44 -8,22 -12,37 -12,44 -2,26 22,39 70,39l363 0c64,0 109,11 135,32 36,30 52,66 50,109 -1,19 -7,46 -20,82l-92 267c-18,53 -36,93 -53,117 -17,25 -40,46 -71,65 -34,20 -68,33 -101,39 -33,5 -96,8 -189,9l-790 0 44 -212c33,17 61,28 84,32 24,5 67,7 129,7l391 0c32,0 54,-2 64,-6 11,-3 20,-12 28,-26 18,-30 27,-57 29,-82 1,-25 -22,-38 -68,-38l-48 1 -289 0c-150,0 -222,-48 -217,-145 1,-26 11,-67 30,-122l84 -242c15,-45 33,-80 52,-104 20,-25 48,-47 85,-67 30,-16 62,-28 96,-35 35,-7 77,-11 125,-11l843 0z"></path> <path class="fil0" d="M15324 796l-88 256 448 0c46,-1 85,-6 119,-15l-73 211c-30,-15 -77,-23 -140,-23l-413 0 -95 275 470 0c47,-1 90,-9 129,-23l-98 196 -1056 0c24,-31 43,-57 55,-80 13,-23 26,-56 41,-100l253 -732c9,-24 14,-52 15,-82 1,-18 -2,-36 -9,-56l1063 0 -38 199c-23,-10 -43,-17 -61,-21 -19,-3 -45,-5 -80,-5l-442 0z"></path> <path class="fil0" d="M12367 623c-25,31 -43,58 -55,80 -12,23 -26,56 -41,99l-253 732c-8,26 -14,54 -15,83 -1,17 2,35 8,56l-536 0c24,-30 42,-57 55,-80 13,-23 26,-56 41,-100l253 -732c9,-24 14,-52 16,-82 0,-18 -3,-36 -9,-56l536 0z"></path> <path class="fil0" d="M10062 623l1113 0 -32 192c-27,-12 -62,-18 -104,-19l-245 0 -254 738c-9,27 -15,55 -16,83 -1,17 2,35 9,56l-536 0c24,-30 42,-57 55,-80 12,-23 26,-56 41,-100l240 -697 -257 0c-42,0 -80,6 -114,18l100 -191z"></path> </g> <g id="_1012209296"> <path class="fil4" d="M18019 0c172,0 311,140 311,312 0,172 -139,311 -311,311 -173,0 -312,-139 -312,-311 0,-172 139,-312 312,-312zm0 47c146,0 264,118 264,265 0,146 -118,264 -264,264 -147,0 -265,-118 -265,-264 0,-147 118,-265 265,-265z"></path> <path class="fil0" d="M17892 488l0 -353 156 0c31,0 55,4 72,10 16,6 29,17 39,33 10,16 14,34 14,53 0,25 -8,47 -24,64 -16,17 -41,28 -75,32 13,6 22,12 28,18 14,12 27,28 39,47l61 96 -58 0 -47 -74c-14,-21 -25,-37 -34,-48 -8,-11 -16,-19 -23,-24 -7,-4 -14,-7 -22,-9 -5,-1 -13,-2 -25,-2l-54 0 0 157 -47 0zm47 -197l100 0c21,0 38,-2 50,-7 12,-4 21,-11 27,-21 6,-10 9,-20 9,-32 0,-16 -6,-30 -18,-41 -12,-10 -31,-16 -57,-16l-111 0 0 117z"></path> </g> </g> </svg> 