<?xml version="1.0" encoding="UTF-8"?> <svg xmlns="http://www.w3.org/2000/svg" width="1094" height="209" viewBox="0 0 1094 209"> <path d="M 807.750 1.749 L 784 2.036 784 24.518 L 784 47 547 47 L 310 47 309.999 24.750 L 309.998 2.500 155.749 2.185 C 28.148 1.924, 1.782 2.097, 3.135 3.185 C 4.034 3.908, 32.031 20.700, 65.351 40.500 C 98.671 60.300, 125.948 76.800, 125.967 77.167 C 125.985 77.533, 98.147 96.883, 64.104 120.167 L 2.208 162.500 26.854 163.115 C 40.409 163.453, 85.138 164.075, 126.250 164.497 L 201 165.264 201.014 184.882 C 201.021 195.672, 201.299 205.512, 201.630 206.750 L 202.233 209 548.097 209 L 893.962 209 894.231 186.750 L 894.500 164.500 947.500 163.748 C 976.650 163.334, 1021.164 162.659, 1046.419 162.248 L 1092.339 161.500 1030.419 119.172 C 996.364 95.892, 968.400 76.542, 968.278 76.172 C 968.156 75.802, 995.943 58.911, 1030.028 38.636 C 1064.113 18.361, 1092 1.598, 1092 1.386 C 1092 0.967, 846.524 1.280, 807.750 1.749 M 838.586 5.984 L 796.672 6.500 845.086 26.572 L 893.500 46.644 893.758 103.467 L 894.017 160.290 940.758 159.641 C 966.466 159.283, 1007.849 158.703, 1032.719 158.350 C 1057.590 157.998, 1077.764 157.427, 1077.551 157.082 C 1077.337 156.737, 1050.813 138.464, 1018.608 116.477 C 986.404 94.490, 960.155 76.173, 960.277 75.773 C 960.400 75.374, 986.580 59.494, 1018.455 40.485 C 1050.331 21.476, 1076.618 5.715, 1076.872 5.461 C 1077.448 4.886, 895.290 5.285, 838.586 5.984 M 17.208 6.541 C 17.505 6.839, 43.793 22.600, 75.624 41.566 C 107.456 60.533, 133.625 76.415, 133.779 76.861 C 133.932 77.307, 107.450 95.858, 74.931 118.086 L 15.805 158.500 39.220 159.119 C 52.098 159.459, 93.767 160.073, 131.818 160.484 L 201 161.230 201 104.316 L 201 47.402 248.922 27.451 L 296.843 7.500 220.672 6.892 C 116.354 6.060, 16.554 5.887, 17.208 6.541 M 789 27.624 L 789 47 835.167 47 C 860.558 47, 881.146 46.814, 880.917 46.587 C 880.688 46.359, 859.913 37.640, 834.750 27.211 L 789 8.248 789 27.624 M 259.685 27.895 L 214.870 46.500 259.591 46.760 C 284.188 46.904, 304.477 46.856, 304.679 46.654 C 304.880 46.453, 304.923 37.964, 304.773 27.790 L 304.500 9.291 259.685 27.895 M 207 128 L 207 205 548.500 205 L 890 205 890 128 L 890 51 548.500 51 L 207 51 207 128 M 710.029 76.977 C 709.590 77.815, 704.494 90.200, 698.705 104.500 C 692.916 118.800, 686.581 134.213, 684.628 138.750 L 681.076 147 686.288 146.999 L 691.500 146.997 693.326 140.749 C 694.330 137.312, 695.998 132.573, 697.034 130.218 L 698.916 125.936 710.626 126.218 L 722.337 126.500 725.752 136.750 L 729.167 147 738.190 147 C 745.023 147, 747.086 146.696, 746.689 145.750 C 735.851 119.961, 731.133 108.284, 725.572 93.477 L 718.802 75.455 714.815 75.455 C 712.260 75.455, 710.540 76.002, 710.029 76.977 M 279.500 111.500 L 279.500 147 287.602 147 L 295.705 147 295.716 111.500 L 295.728 76 287.614 76 L 279.500 76 279.500 111.500 M 329.124 93.250 C 327.863 102.737, 325.520 118.498, 323.916 128.273 C 322.312 138.048, 321 146.260, 321 146.523 C 321 146.785, 323.250 147, 326 147 C 329.335 147, 330.999 146.584, 330.997 145.750 C 330.986 140.670, 334.335 104.232, 334.907 103.206 C 335.348 102.416, 339.851 110.676, 346.490 124.456 C 356.084 144.368, 357.626 147, 359.701 147 C 361.642 147, 362.635 145.739, 365.410 139.750 C 373.845 121.542, 384.084 100.751, 384.439 101.107 C 384.654 101.323, 385.578 110.275, 386.493 121 C 387.407 131.725, 388.365 141.963, 388.623 143.750 L 389.091 147 397.670 147 L 406.250 147 405.651 144.004 C 404.888 140.191, 401.584 113.837, 399.507 95 C 397.254 74.575, 397.785 76, 392.426 76 L 387.890 76 385.356 81.750 C 380.308 93.207, 364.786 124, 364.059 124 C 363.247 124, 341 78.667, 341 77.013 C 341 76.456, 338.844 76, 336.208 76 L 331.416 76 329.124 93.250 M 429.500 111.424 L 429.500 147 438.052 147 L 446.605 147 446.183 132.155 L 445.761 117.309 452.664 116.668 C 462.555 115.749, 468.310 113.506, 472.401 108.978 C 481.019 99.439, 479.155 83.967, 468.698 78.249 C 466.064 76.809, 462.325 76.442, 447.500 76.174 L 429.500 75.848 429.500 111.424 M 500 111.500 L 500 147 520 147 L 540 147 540 142.723 L 540 138.447 532.250 139.152 C 527.987 139.540, 522.587 139.890, 520.250 139.929 L 516 140 515.999 126.750 L 515.997 113.500 527.499 113.836 L 539 114.172 539 110.086 L 539 106 527.500 106 L 516 106 516 94.847 L 516 83.695 528 84.298 L 540 84.901 540 80.451 L 540 76 520 76 L 500 76 500 111.500 M 565.500 111.500 L 565.500 147 573.781 147 L 582.061 147 581.377 131 C 580.977 121.632, 581.068 115.011, 581.597 115.026 C 582.093 115.041, 586.550 122.239, 591.500 131.022 L 600.500 146.991 609.750 146.995 C 614.837 146.998, 619 146.758, 619 146.462 C 619 146.166, 616.383 142.003, 613.186 137.212 C 605.065 125.045, 597.673 112.979, 598.122 112.623 C 598.330 112.458, 600.634 111.312, 603.243 110.076 C 610.996 106.402, 614.642 99.198, 613.352 90.103 C 612.568 84.574, 607.337 78.466, 602.152 77.025 C 600.143 76.468, 591.075 76.009, 582 76.005 L 565.500 76 565.500 111.500 M 641.500 111.500 L 641.500 147 650 147 L 658.500 147 658.500 111.500 L 658.500 76 650 76 L 641.500 76 641.500 111.500 M 770 111.500 L 770 147 790 147 L 810 147 810 142.392 C 810 138.119, 809.836 137.823, 807.750 138.324 C 806.513 138.621, 801.225 138.987, 796 139.137 L 786.500 139.411 786.541 107.706 L 786.582 76 778.291 76 L 770 76 770 111.500 M 446 96.611 L 446 111.223 449.750 110.537 C 458.161 109, 461.434 104.164, 460.801 94.212 C 460.433 88.433, 460.043 87.428, 457.178 84.868 C 454.783 82.728, 452.958 82, 449.984 82 L 446 82 446 96.611 M 581.648 85.012 C 581.291 86.793, 581 93.144, 581 99.125 L 581 110 584.550 110 C 593.928 110, 599.872 100.667, 597.086 90.318 C 595.640 84.950, 593 82.803, 587.158 82.241 C 582.347 81.779, 582.288 81.808, 581.648 85.012 M 708.229 101.696 C 707.094 104.338, 705.023 109.537, 703.627 113.250 L 701.090 120 710.045 120 C 715.205 120, 719 119.586, 719 119.023 C 719 117.633, 711.907 98.663, 711.025 97.696 C 710.622 97.254, 709.364 99.054, 708.229 101.696 M 797.388 160.980 C 794.284 162.234, 791 166.871, 791 170 C 791 173.556, 794.218 177.560, 799.061 180.031 C 804.069 182.586, 805.399 184.985, 803.396 187.845 C 801.387 190.713, 798.475 190.566, 795.348 187.439 C 792.454 184.544, 792.513 184.532, 791.632 188.210 C 789.809 195.811, 806.347 194.201, 809.580 186.463 C 812.020 180.622, 809.404 175.839, 801.924 172.466 C 797.811 170.611, 795.774 166.826, 797.798 164.802 C 799.471 163.129, 804.221 163.582, 805.662 165.552 C 807.147 167.583, 807.464 167.435, 808.443 164.251 C 809.003 162.429, 808.634 161.811, 806.502 161.001 C 803.381 159.814, 800.291 159.807, 797.388 160.980 M 656.429 163 C 656.429 164.694, 657.095 165, 660.792 165 L 665.155 165 664.827 178.501 L 664.500 192.003 668.250 192.001 L 672 192 672 178.500 L 672 165 676 165 C 679.333 165, 680 164.667, 680 163 C 680 161.113, 679.333 161, 668.214 161 C 657.095 161, 656.429 161.113, 656.429 163 M 690 161.668 C 690 162.035, 692.025 166.081, 694.500 170.658 C 698.520 178.093, 699 179.675, 699 185.490 L 699 192 702.750 192.002 L 706.500 192.004 706.164 185.493 C 705.848 179.365, 706.099 178.482, 710.414 170.500 C 712.936 165.836, 715 161.790, 715 161.510 C 715 161.229, 714.084 161, 712.964 161 C 711.499 161, 710.379 162.283, 708.967 165.578 C 707.887 168.096, 706.342 171.101, 705.533 172.256 C 704.120 174.273, 703.937 174.091, 700.937 167.678 C 697.865 161.114, 697.745 161, 693.906 161 C 691.758 161, 690 161.301, 690 161.668 M 727.500 176.500 L 727.500 192 731.250 192 L 735 192 735.029 185.250 L 735.058 178.500 738.779 185.241 C 742.481 191.949, 742.522 191.982, 746.832 191.991 L 751.163 192 748.895 188.250 C 747.648 186.188, 745.617 182.978, 744.382 181.118 L 742.137 177.737 745.568 174.500 C 749.721 170.584, 750.042 166.951, 746.545 163.455 C 744.334 161.243, 743.270 161, 735.795 161 L 727.500 161 727.500 176.500 M 762.353 176.500 L 762.353 192 771.176 192 C 779.525 192, 780 191.885, 780 189.861 C 780 187.881, 779.626 187.766, 775 188.314 L 770 188.906 770 183.453 L 770 178 775 178 C 779.333 178, 780 177.733, 780 176 C 780 174.267, 779.333 174, 775 174 L 770 174 770 169.500 L 770 165 775 165 C 779.333 165, 780 164.733, 780 163 C 780 161.151, 779.333 161, 771.176 161 L 762.353 161 762.353 176.500 M 735 170 C 735 176.180, 735.547 176.848, 739.066 174.965 C 740.452 174.223, 741 172.864, 741 170.165 C 741 166.057, 739.599 164, 736.800 164 C 735.267 164, 735 164.889, 735 170" stroke="none" fill="#0a0a06" fill-rule="evenodd"></path> <path d="M 997.148 0.481 C 997.815 1.148, 1093.130 1.204, 1093.796 0.538 C 1094.091 0.242, 1072.358 0, 1045.500 0 C 1018.642 0, 996.883 0.217, 997.148 0.481 M 0.998 1.750 C 0.997 2.163, 6.510 2.382, 13.248 2.239 C 36.287 1.747, 38.503 1.392, 19.750 1.196 C 9.438 1.088, 0.999 1.337, 0.998 1.750 M 795.807 1.747 C 802.576 1.921, 813.376 1.920, 819.807 1.746 C 826.238 1.572, 820.700 1.431, 807.500 1.431 C 794.300 1.432, 789.038 1.574, 795.807 1.747 M 230.750 2.749 C 245.187 2.905, 268.812 2.905, 283.250 2.749 C 297.688 2.593, 285.875 2.465, 257 2.465 C 228.125 2.465, 216.312 2.593, 230.750 2.749 M 838.586 5.984 L 796.672 6.500 845.086 26.572 L 893.500 46.644 893.758 103.467 L 894.017 160.290 940.758 159.641 C 966.466 159.283, 1007.849 158.703, 1032.719 158.350 C 1057.590 157.998, 1077.764 157.427, 1077.551 157.082 C 1077.337 156.737, 1050.813 138.464, 1018.608 116.477 C 986.404 94.490, 960.155 76.173, 960.277 75.773 C 960.400 75.374, 986.580 59.494, 1018.455 40.485 C 1050.331 21.476, 1076.618 5.715, 1076.872 5.461 C 1077.448 4.886, 895.290 5.285, 838.586 5.984 M 17.208 6.541 C 17.505 6.839, 43.793 22.600, 75.624 41.566 C 107.456 60.533, 133.625 76.415, 133.779 76.861 C 133.932 77.307, 107.450 95.858, 74.931 118.086 L 15.805 158.500 39.220 159.119 C 52.098 159.459, 93.767 160.073, 131.818 160.484 L 201 161.230 201 104.316 L 201 47.402 248.922 27.451 L 296.843 7.500 220.672 6.892 C 116.354 6.060, 16.554 5.887, 17.208 6.541 M 789 27.624 L 789 47 835.167 47 C 860.558 47, 881.146 46.814, 880.917 46.587 C 880.688 46.359, 859.913 37.640, 834.750 27.211 L 789 8.248 789 27.624 M 259.685 27.895 L 214.870 46.500 259.591 46.760 C 284.188 46.904, 304.477 46.856, 304.679 46.654 C 304.880 46.453, 304.923 37.964, 304.773 27.790 L 304.500 9.291 259.685 27.895 M 207 128 L 207 205 548.500 205 L 890 205 890 128 L 890 51 548.500 51 L 207 51 207 128 M 710.029 76.977 C 709.590 77.815, 704.494 90.200, 698.705 104.500 C 692.916 118.800, 686.581 134.213, 684.628 138.750 L 681.076 147 686.288 146.999 L 691.500 146.997 693.326 140.749 C 694.330 137.312, 695.998 132.573, 697.034 130.218 L 698.916 125.936 710.626 126.218 L 722.337 126.500 725.752 136.750 L 729.167 147 738.190 147 C 745.023 147, 747.086 146.696, 746.689 145.750 C 735.851 119.961, 731.133 108.284, 725.572 93.477 L 718.802 75.455 714.815 75.455 C 712.260 75.455, 710.540 76.002, 710.029 76.977 M 279.500 111.500 L 279.500 147 287.602 147 L 295.705 147 295.716 111.500 L 295.728 76 287.614 76 L 279.500 76 279.500 111.500 M 329.124 93.250 C 327.863 102.737, 325.520 118.498, 323.916 128.273 C 322.312 138.048, 321 146.260, 321 146.523 C 321 146.785, 323.250 147, 326 147 C 329.335 147, 330.999 146.584, 330.997 145.750 C 330.986 140.670, 334.335 104.232, 334.907 103.206 C 335.348 102.416, 339.851 110.676, 346.490 124.456 C 356.084 144.368, 357.626 147, 359.701 147 C 361.642 147, 362.635 145.739, 365.410 139.750 C 373.845 121.542, 384.084 100.751, 384.439 101.107 C 384.654 101.323, 385.578 110.275, 386.493 121 C 387.407 131.725, 388.365 141.963, 388.623 143.750 L 389.091 147 397.670 147 L 406.250 147 405.651 144.004 C 404.888 140.191, 401.584 113.837, 399.507 95 C 397.254 74.575, 397.785 76, 392.426 76 L 387.890 76 385.356 81.750 C 380.308 93.207, 364.786 124, 364.059 124 C 363.247 124, 341 78.667, 341 77.013 C 341 76.456, 338.844 76, 336.208 76 L 331.416 76 329.124 93.250 M 429.500 111.424 L 429.500 147 438.052 147 L 446.605 147 446.183 132.155 L 445.761 117.309 452.664 116.668 C 462.555 115.749, 468.310 113.506, 472.401 108.978 C 481.019 99.439, 479.155 83.967, 468.698 78.249 C 466.064 76.809, 462.325 76.442, 447.500 76.174 L 429.500 75.848 429.500 111.424 M 500 111.500 L 500 147 520 147 L 540 147 540 142.723 L 540 138.447 532.250 139.152 C 527.987 139.540, 522.587 139.890, 520.250 139.929 L 516 140 515.999 126.750 L 515.997 113.500 527.499 113.836 L 539 114.172 539 110.086 L 539 106 527.500 106 L 516 106 516 94.847 L 516 83.695 528 84.298 L 540 84.901 540 80.451 L 540 76 520 76 L 500 76 500 111.500 M 565.500 111.500 L 565.500 147 573.781 147 L 582.061 147 581.377 131 C 580.977 121.632, 581.068 115.011, 581.597 115.026 C 582.093 115.041, 586.550 122.239, 591.500 131.022 L 600.500 146.991 609.750 146.995 C 614.837 146.998, 619 146.758, 619 146.462 C 619 146.166, 616.383 142.003, 613.186 137.212 C 605.065 125.045, 597.673 112.979, 598.122 112.623 C 598.330 112.458, 600.634 111.312, 603.243 110.076 C 610.996 106.402, 614.642 99.198, 613.352 90.103 C 612.568 84.574, 607.337 78.466, 602.152 77.025 C 600.143 76.468, 591.075 76.009, 582 76.005 L 565.500 76 565.500 111.500 M 641.500 111.500 L 641.500 147 650 147 L 658.500 147 658.500 111.500 L 658.500 76 650 76 L 641.500 76 641.500 111.500 M 770 111.500 L 770 147 790 147 L 810 147 810 142.392 C 810 138.119, 809.836 137.823, 807.750 138.324 C 806.513 138.621, 801.225 138.987, 796 139.137 L 786.500 139.411 786.541 107.706 L 786.582 76 778.291 76 L 770 76 770 111.500 M 446 96.611 L 446 111.223 449.750 110.537 C 458.161 109, 461.434 104.164, 460.801 94.212 C 460.433 88.433, 460.043 87.428, 457.178 84.868 C 454.783 82.728, 452.958 82, 449.984 82 L 446 82 446 96.611 M 581.648 85.012 C 581.291 86.793, 581 93.144, 581 99.125 L 581 110 584.550 110 C 593.928 110, 599.872 100.667, 597.086 90.318 C 595.640 84.950, 593 82.803, 587.158 82.241 C 582.347 81.779, 582.288 81.808, 581.648 85.012 M 708.229 101.696 C 707.094 104.338, 705.023 109.537, 703.627 113.250 L 701.090 120 710.045 120 C 715.205 120, 719 119.586, 719 119.023 C 719 117.633, 711.907 98.663, 711.025 97.696 C 710.622 97.254, 709.364 99.054, 708.229 101.696 M 797.388 160.980 C 794.284 162.234, 791 166.871, 791 170 C 791 173.556, 794.218 177.560, 799.061 180.031 C 804.069 182.586, 805.399 184.985, 803.396 187.845 C 801.387 190.713, 798.475 190.566, 795.348 187.439 C 792.454 184.544, 792.513 184.532, 791.632 188.210 C 789.809 195.811, 806.347 194.201, 809.580 186.463 C 812.020 180.622, 809.404 175.839, 801.924 172.466 C 797.811 170.611, 795.774 166.826, 797.798 164.802 C 799.471 163.129, 804.221 163.582, 805.662 165.552 C 807.147 167.583, 807.464 167.435, 808.443 164.251 C 809.003 162.429, 808.634 161.811, 806.502 161.001 C 803.381 159.814, 800.291 159.807, 797.388 160.980 M 656.429 163 C 656.429 164.694, 657.095 165, 660.792 165 L 665.155 165 664.827 178.501 L 664.500 192.003 668.250 192.001 L 672 192 672 178.500 L 672 165 676 165 C 679.333 165, 680 164.667, 680 163 C 680 161.113, 679.333 161, 668.214 161 C 657.095 161, 656.429 161.113, 656.429 163 M 690 161.668 C 690 162.035, 692.025 166.081, 694.500 170.658 C 698.520 178.093, 699 179.675, 699 185.490 L 699 192 702.750 192.002 L 706.500 192.004 706.164 185.493 C 705.848 179.365, 706.099 178.482, 710.414 170.500 C 712.936 165.836, 715 161.790, 715 161.510 C 715 161.229, 714.084 161, 712.964 161 C 711.499 161, 710.379 162.283, 708.967 165.578 C 707.887 168.096, 706.342 171.101, 705.533 172.256 C 704.120 174.273, 703.937 174.091, 700.937 167.678 C 697.865 161.114, 697.745 161, 693.906 161 C 691.758 161, 690 161.301, 690 161.668 M 727.500 176.500 L 727.500 192 731.250 192 L 735 192 735.029 185.250 L 735.058 178.500 738.779 185.241 C 742.481 191.949, 742.522 191.982, 746.832 191.991 L 751.163 192 748.895 188.250 C 747.648 186.188, 745.617 182.978, 744.382 181.118 L 742.137 177.737 745.568 174.500 C 749.721 170.584, 750.042 166.951, 746.545 163.455 C 744.334 161.243, 743.270 161, 735.795 161 L 727.500 161 727.500 176.500 M 762.353 176.500 L 762.353 192 771.176 192 C 779.525 192, 780 191.885, 780 189.861 C 780 187.881, 779.626 187.766, 775 188.314 L 770 188.906 770 183.453 L 770 178 775 178 C 779.333 178, 780 177.733, 780 176 C 780 174.267, 779.333 174, 775 174 L 770 174 770 169.500 L 770 165 775 165 C 779.333 165, 780 164.733, 780 163 C 780 161.151, 779.333 161, 771.176 161 L 762.353 161 762.353 176.500 M 1047.750 162.746 C 1053.388 162.924, 1062.612 162.924, 1068.250 162.746 C 1073.888 162.568, 1069.275 162.422, 1058 162.422 C 1046.725 162.422, 1042.112 162.568, 1047.750 162.746 M 12.803 163.746 C 18.470 163.925, 27.470 163.924, 32.803 163.745 C 38.136 163.565, 33.500 163.419, 22.500 163.420 C 11.500 163.421, 7.136 163.568, 12.803 163.746 M 966.750 163.746 C 972.388 163.924, 981.612 163.924, 987.250 163.746 C 992.888 163.568, 988.275 163.422, 977 163.422 C 965.725 163.422, 961.112 163.568, 966.750 163.746 M 92.750 164.746 C 98.388 164.924, 107.612 164.924, 113.250 164.746 C 118.888 164.568, 114.275 164.422, 103 164.422 C 91.725 164.422, 87.112 164.568, 92.750 164.746 M 735 170 C 735 176.180, 735.547 176.848, 739.066 174.965 C 740.452 174.223, 741 172.864, 741 170.165 C 741 166.057, 739.599 164, 736.800 164 C 735.267 164, 735 164.889, 735 170 M 894.448 165.275 C 894.179 165.976, 894.090 176.213, 894.250 188.025 L 894.542 209.500 894.771 187.284 L 895 165.068 905.750 164.746 L 916.500 164.425 905.719 164.212 C 897.745 164.055, 894.810 164.332, 894.448 165.275 M 173.302 165.746 C 178.693 165.926, 187.243 165.925, 192.302 165.744 C 197.361 165.563, 192.950 165.416, 182.500 165.417 C 172.050 165.418, 167.911 165.566, 173.302 165.746" stroke="none" fill="#dbdd26" fill-rule="evenodd"></path> </svg> 