<?xml version="1.0" encoding="UTF-8"?> <svg xmlns="http://www.w3.org/2000/svg" width="2000" height="338" viewBox="0 0 2000 338"> <path d="M 89.658 208.458 C 85.996 213.660, 83 218.048, 83 218.208 C 83 218.369, 153.359 218.385, 239.353 218.244 L 395.705 217.988 395.229 212.744 C 394.968 209.860, 394.459 205.700, 394.099 203.500 L 393.445 199.500 336.612 199.242 C 286.766 199.015, 279.849 199.165, 280.348 200.464 C 280.841 201.748, 276.809 201.981, 249.957 202.222 C 232.930 202.375, 218.999 202.252, 218.999 201.950 C 219 201.647, 219.540 200.860, 220.200 200.200 C 221.133 199.267, 207.502 199, 158.858 199 L 96.317 199 89.658 208.458 M 461.506 200.250 C 461.268 200.938, 460.232 205.100, 459.204 209.500 L 457.333 217.500 505.824 217.760 C 532.493 217.902, 554.510 217.824, 554.749 217.585 C 555.164 217.170, 558.921 201.312, 558.974 199.750 C 558.988 199.338, 537.161 199, 510.469 199 C 472.540 199, 461.843 199.273, 461.506 200.250 M 583 199.607 C 583 199.940, 583.732 204.215, 584.627 209.107 L 586.254 218 649.497 218 L 712.741 218 719.370 209.028 C 723.017 204.094, 726 199.819, 726 199.528 C 726 199.238, 693.825 199, 654.500 199 C 615.175 199, 583 199.273, 583 199.607 M 764.415 201.750 C 764.072 203.262, 763.164 206.719, 762.396 209.432 C 759.707 218.931, 754.648 218, 808.941 218 C 835.309 218, 857.111 217.630, 857.391 217.177 C 857.671 216.724, 858.558 213.236, 859.364 209.427 C 860.169 205.617, 861.140 201.713, 861.521 200.750 C 862.175 199.098, 859.498 199, 813.626 199 L 765.038 199 764.415 201.750 M 1008.006 203.750 C 1007.316 206.363, 1006.133 210.428, 1005.376 212.785 C 1004.619 215.142, 1004 217.279, 1004 217.535 C 1004 217.791, 1033.627 218, 1069.839 218 L 1135.678 218 1137.763 210.250 C 1138.910 205.988, 1140.155 201.713, 1140.531 200.750 C 1141.177 199.094, 1137.666 199, 1075.237 199 L 1009.260 199 1008.006 203.750 M 1290.561 207.395 C 1289.152 212.012, 1288 216.287, 1288 216.895 C 1288 217.691, 1306.412 218, 1353.778 218 L 1419.556 218 1422.643 208.500 L 1425.730 199 1359.426 199 L 1293.121 199 1290.561 207.395 M 1681.587 207.252 C 1680.535 211.788, 1679.475 216.063, 1679.230 216.750 C 1678.878 217.741, 1691.029 218, 1737.854 218 L 1796.923 218 1797.961 214 C 1798.533 211.800, 1799.475 208.172, 1800.055 205.937 C 1800.636 203.703, 1801.359 201.228, 1801.662 200.437 C 1802.138 199.197, 1794.061 199, 1742.857 199.002 L 1683.500 199.004 1681.587 207.252 M 68.525 238.099 C 66.510 240.903, 64.619 243.829, 64.323 244.602 C 63.861 245.804, 87.863 245.970, 231.642 245.753 C 380.157 245.529, 399.481 245.327, 399.333 244 C 399.242 243.175, 398.877 240.363, 398.522 237.750 L 397.877 233 235.033 233 L 72.188 233 68.525 238.099 M 453.523 234.250 C 452.544 237.206, 451.011 243.601, 451.006 244.750 C 451.001 245.733, 461.464 246, 500 246 C 526.950 246, 549.016 245.662, 549.036 245.250 C 549.055 244.838, 549.690 241.912, 550.445 238.750 L 551.820 233 502.878 233 C 464.613 233, 453.847 233.273, 453.523 234.250 M 589.610 236.750 C 589.996 238.813, 590.611 241.625, 590.978 243 L 591.644 245.500 641.683 245.759 L 691.722 246.018 694.322 242.259 C 695.752 240.192, 697.877 237.262, 699.044 235.750 L 701.167 233 645.038 233 L 588.909 233 589.610 236.750 M 754.898 239.500 L 753.396 246 802.068 246 L 850.740 246 851.808 241.750 C 852.396 239.412, 853.087 236.488, 853.345 235.250 L 853.813 233 805.107 233 L 756.401 233 754.898 239.500 M 997.664 238.985 C 996.749 242.277, 996 245.202, 996 245.485 C 996 245.768, 1025.439 246, 1061.420 246 L 1126.839 246 1128.565 240.750 C 1129.515 237.863, 1130.499 234.938, 1130.753 234.250 C 1131.119 233.258, 1117.605 233, 1065.271 233 L 999.328 233 997.664 238.985 M 1282.047 238.250 C 1281.314 241.137, 1280.505 244.066, 1280.248 244.757 C 1279.875 245.760, 1293.057 245.962, 1345.503 245.757 L 1411.226 245.500 1413.098 239.500 C 1414.128 236.200, 1414.977 233.387, 1414.985 233.250 C 1414.993 233.113, 1385.385 233, 1349.189 233 L 1283.378 233 1282.047 238.250 M 1675.554 234.250 C 1675.343 234.938, 1674.457 237.718, 1673.585 240.428 C 1672.713 243.139, 1672 245.501, 1672 245.678 C 1672 245.855, 1698.775 246, 1731.500 246 C 1778.393 246, 1791.016 245.735, 1791.077 244.750 C 1791.119 244.063, 1791.295 242.825, 1791.468 242 C 1791.641 241.175, 1792.106 238.813, 1792.502 236.750 L 1793.223 233 1734.580 233 C 1688.537 233, 1675.855 233.269, 1675.554 234.250 M 43.182 274.366 C 38.682 280.617, 35 285.905, 35 286.116 C 35 286.327, 118.527 286.385, 220.615 286.245 L 406.231 285.989 405.643 283.745 C 405.319 282.510, 404.496 277.337, 403.813 272.250 L 402.570 263 226.968 263 L 51.365 263 43.182 274.366 M 446.097 266.750 C 445.558 268.813, 444.236 273.988, 443.160 278.250 L 441.204 286 490.434 286 L 539.664 286 541.824 276.750 C 543.012 271.663, 544.266 266.488, 544.609 265.250 L 545.233 263 496.155 263 L 447.077 263 446.097 266.750 M 749.483 264.250 C 749.234 264.938, 747.950 270.113, 746.631 275.750 L 744.232 286 792.641 286 L 841.050 286 841.966 283.589 C 842.771 281.472, 847 264.529, 847 263.421 C 847 263.189, 825.161 263, 798.469 263 C 760.552 263, 749.838 263.273, 749.483 264.250 M 989.417 265.750 C 989.075 267.262, 987.990 271.425, 987.005 275 C 986.021 278.575, 984.984 282.512, 984.701 283.750 L 984.187 286 1049.935 286 L 1115.683 286 1116.798 282.250 C 1117.411 280.188, 1118.609 275.812, 1119.460 272.528 C 1120.310 269.243, 1121.260 265.755, 1121.571 264.778 C 1122.107 263.086, 1118.924 263, 1056.086 263 L 990.038 263 989.417 265.750 M 1274.089 266.250 C 1272.784 270.227, 1269.056 284.214, 1269.024 285.253 C 1269.011 285.667, 1345.824 285.892, 1439.720 285.753 L 1610.439 285.500 1612.734 277 C 1613.997 272.325, 1615.304 267.262, 1615.640 265.750 L 1616.250 263 1445.703 263 L 1275.155 263 1274.089 266.250 M 1665.652 273.750 C 1664.192 279.663, 1662.998 284.837, 1662.999 285.250 C 1662.999 285.663, 1737.632 286, 1828.849 286 L 1994.698 286 1997.357 275.750 C 1998.819 270.113, 2000.012 264.938, 2000.008 264.250 C 2000.002 263.255, 1966.160 263, 1834.153 263 L 1668.307 263 1665.652 273.750 M 13.933 316.250 C 9.942 321.887, 5.136 328.637, 3.253 331.250 L -0.170 336 68.665 335.973 L 137.500 335.946 146 321.851 C 150.675 314.099, 154.650 307.361, 154.833 306.878 C 155.023 306.379, 126.228 306, 88.178 306 L 21.189 306 13.933 316.250 M 295.096 311.250 C 295.502 314.137, 296.410 320.887, 297.114 326.250 L 298.395 336 355.756 336 C 387.305 336, 412.915 335.663, 412.666 335.250 C 412.417 334.837, 411.700 329.550, 411.071 323.500 C 410.443 317.450, 409.670 311.038, 409.353 309.250 L 408.777 306 351.568 306 L 294.359 306 295.096 311.250 M 436.487 307.250 C 435.654 309.562, 431.003 329.487, 431.001 330.750 C 431 331.733, 441.566 332, 480.500 332 C 528.790 332, 530 331.953, 530 330.064 C 530 328.999, 531.124 323.486, 532.499 317.814 C 533.873 312.141, 534.998 307.163, 534.999 306.750 C 534.999 306.337, 512.936 306, 485.969 306 C 447.650 306, 436.839 306.273, 436.487 307.250 M 736.723 317.750 C 735.224 324.212, 733.998 329.753, 733.999 330.062 C 734 330.372, 744.913 330.697, 758.250 330.786 C 771.587 330.874, 793.376 331.203, 806.669 331.517 C 829.332 332.052, 830.869 331.975, 831.339 330.294 C 832.476 326.222, 835.027 315.183, 835.855 310.750 L 836.742 306 788.095 306 L 739.449 306 736.723 317.750 M 976.944 310.250 C 976.320 312.587, 974.503 318.597, 972.905 323.603 C 971.307 328.610, 970 332.998, 970 333.353 C 970 333.709, 999.641 334, 1035.868 334 L 1101.736 334 1103.478 327.793 C 1104.436 324.380, 1106.295 318.198, 1107.610 314.055 C 1108.924 309.913, 1110 306.406, 1110 306.262 C 1110 306.118, 1080.317 306, 1044.039 306 L 978.077 306 976.944 310.250 M 1262.675 306.750 C 1262.431 307.163, 1261.301 311.100, 1260.164 315.500 C 1259.027 319.900, 1257.175 326.371, 1256.048 329.880 C 1254.922 333.389, 1254 336.652, 1254 337.130 C 1254 337.620, 1328.864 338, 1425.280 338 L 1596.561 338 1600.342 323.750 C 1602.422 315.913, 1604.351 308.713, 1604.629 307.750 C 1605.109 306.088, 1596.517 306, 1434.126 306 C 1340.072 306, 1262.919 306.337, 1262.675 306.750 M 1657.012 310.250 C 1655.911 314.642, 1651.153 333.159, 1650.331 336.250 C 1649.889 337.912, 1658.259 338, 1815.865 338 C 1978.404 338, 1981.878 337.960, 1982.472 336.089 C 1983.257 333.616, 1990 307.084, 1990 306.469 C 1990 306.211, 1915.317 306, 1824.039 306 L 1658.077 306 1657.012 310.250" stroke="none" fill="#c5cccc" fill-rule="evenodd"></path> <path d="M 250 1.037 C 250 1.616, 250.686 6.458, 251.524 11.795 C 252.362 17.133, 255.074 35, 257.550 51.500 C 266.842 113.424, 268.152 122.129, 272.006 147.500 C 274.178 161.800, 276.250 175.975, 276.611 179 C 277.801 188.961, 271.615 188, 334.567 188 C 380.605 188, 390.152 187.767, 390.588 186.631 C 391.227 184.966, 389.904 175.480, 372.365 56 C 370.386 42.525, 367.798 24.525, 366.613 16 L 364.458 0.500 307.229 0.242 C 267.646 0.063, 250 0.308, 250 1.037 M 507 1.527 C 507 2.951, 504.040 15.978, 495.420 52.500 C 490.091 75.076, 489.117 79.243, 485.486 95 C 479.773 119.789, 465.209 182.358, 464.478 185.250 L 463.783 188 512.718 188 L 561.653 188 564.841 173.750 C 566.595 165.912, 569.076 154.775, 570.355 149 L 572.680 138.500 573.393 143.500 C 574.135 148.706, 579.611 180.451, 580.595 185.250 L 581.159 188 658.329 187.956 L 735.500 187.913 757.991 157.866 C 770.361 141.341, 780.746 127.657, 781.068 127.458 C 781.390 127.259, 780.664 131.012, 779.456 135.798 C 777.416 143.875, 768.332 182.350, 767.552 186.214 C 767.229 187.813, 770.463 187.931, 815.893 187.981 L 864.581 188.034 867.222 176.267 C 869.881 164.420, 872.569 152.786, 879.877 121.500 C 882.061 112.150, 888.384 84.925, 893.929 61 C 899.474 37.075, 904.908 13.804, 906.005 9.286 C 907.102 4.769, 908 0.831, 908 0.536 C 908 0.241, 879.690 0, 845.089 0 L 782.177 0 776.759 7.250 C 773.779 11.238, 764.653 23.500, 756.480 34.500 C 748.307 45.500, 732.561 66.650, 721.490 81.500 C 690.452 123.133, 669.585 151.251, 667.706 153.973 C 666.768 155.332, 666 156.143, 666 155.773 C 666 155.404, 663.264 142.141, 659.919 126.301 C 656.575 110.460, 652.105 89.175, 649.986 79 C 647.866 68.825, 644.268 51.725, 641.989 41 C 639.710 30.275, 636.874 16.663, 635.688 10.750 L 633.530 0 570.265 0 C 514.207 0, 507 0.174, 507 1.527 M 940.523 1.250 C 939.579 4.101, 935.781 17.728, 930.561 37 C 927.507 48.275, 923.881 61.568, 922.504 66.540 C 921.127 71.513, 920 76.126, 920 76.793 C 920 77.739, 960.658 77.950, 1105.250 77.753 L 1290.500 77.500 1291.631 73 C 1292.253 70.525, 1295.565 58.375, 1298.990 46 C 1302.416 33.625, 1305.864 21.025, 1306.653 18 C 1307.443 14.975, 1308.743 10.281, 1309.544 7.568 C 1310.345 4.856, 1311 2.044, 1311 1.318 C 1311 -0.581, 941.152 -0.650, 940.523 1.250 M 1345.617 9.750 C 1333.642 52.115, 1327 76.165, 1327 77.158 C 1327 77.621, 1401.431 78, 1492.403 78 L 1657.805 78 1659.822 71.250 C 1660.931 67.537, 1664.181 56.175, 1667.044 46 C 1669.907 35.825, 1673.994 21.470, 1676.125 14.099 C 1678.256 6.729, 1680 0.541, 1680 0.349 C 1680 0.157, 1605.384 0, 1514.186 0 L 1348.373 0 1345.617 9.750 M 1731.528 1.250 C 1731.302 1.938, 1721.193 43.631, 1709.063 93.902 C 1692.326 163.267, 1687.278 185.630, 1688.127 186.652 C 1689.041 187.754, 1699.807 188, 1747.122 188 C 1778.955 188, 1805 187.683, 1805 187.296 C 1805 186.672, 1816.012 140.577, 1825.496 101.500 C 1827.365 93.800, 1833.431 68.600, 1838.976 45.500 C 1844.522 22.400, 1849.301 2.712, 1849.597 1.750 C 1850.105 0.097, 1846.859 -0, 1791.036 -0 C 1744.642 -0, 1731.849 0.269, 1731.528 1.250 M 153.286 117.750 C 151.701 119.813, 149.673 122.625, 148.780 124 C 145.707 128.731, 111.210 177.506, 107.488 182.383 C 105.438 185.069, 104.265 186.955, 104.880 186.574 C 105.496 186.193, 106 186.362, 106 186.949 C 106 187.696, 124.189 187.938, 166.640 187.758 L 227.281 187.500 246.640 151.510 C 257.288 131.715, 266 115.178, 266 114.760 C 266 114.342, 241.288 114, 211.084 114 L 156.168 114 153.286 117.750 M 1028.518 130.750 C 1025.869 139.963, 1022.930 150.200, 1021.988 153.500 C 1021.046 156.800, 1018.590 165.239, 1016.532 172.253 C 1014.473 179.268, 1013.048 185.683, 1013.366 186.511 C 1013.873 187.832, 1021.883 187.983, 1079.221 187.757 L 1144.500 187.500 1147.175 179 C 1148.645 174.325, 1151.522 164.650, 1153.568 157.500 C 1155.613 150.350, 1158.961 138.875, 1161.007 132 C 1163.054 125.125, 1165.023 118.263, 1165.383 116.750 L 1166.038 114 1099.686 114 L 1033.334 114 1028.518 130.750 M 1315.901 117.750 C 1315.324 119.263, 1314.252 122.750, 1313.519 125.500 C 1312.787 128.250, 1309.168 141.075, 1305.479 154 C 1297.205 182.983, 1296.935 184.086, 1297.598 186.250 C 1298.106 187.907, 1306.824 188, 1462.317 187.999 L 1626.500 187.998 1629.238 177.749 C 1630.744 172.112, 1633.501 161.875, 1635.364 155 C 1637.228 148.125, 1640.214 137.100, 1642.001 130.500 C 1643.787 123.900, 1645.471 117.713, 1645.741 116.750 C 1646.208 115.088, 1637.914 115, 1481.592 115 L 1316.950 115 1315.901 117.750" stroke="none" fill="#fb2c34" fill-rule="evenodd"></path> </svg> 