<?xml version="1.0" encoding="UTF-8"?> <svg xmlns="http://www.w3.org/2000/svg" width="1024" height="110" viewBox="0 0 1024 110"> <path d="M 186.318 107.749 C 198.317 107.909, 217.667 107.909, 229.318 107.749 C 240.968 107.589, 231.150 107.458, 207.500 107.458 C 183.850 107.459, 174.318 107.590, 186.318 107.749 M 309.250 107.749 C 322.863 107.906, 345.137 107.906, 358.750 107.749 C 372.363 107.592, 361.225 107.463, 334 107.463 C 306.775 107.463, 295.637 107.592, 309.250 107.749 M 404.250 107.746 C 410.163 107.923, 419.837 107.923, 425.750 107.746 C 431.663 107.569, 426.825 107.425, 415 107.425 C 403.175 107.425, 398.337 107.569, 404.250 107.746 M 483.195 107.746 C 489.077 107.922, 498.977 107.923, 505.195 107.747 C 511.413 107.571, 506.600 107.427, 494.500 107.426 C 482.400 107.425, 477.313 107.569, 483.195 107.746 M 557.750 107.750 C 579.338 107.900, 614.663 107.900, 636.250 107.750 C 657.838 107.599, 640.175 107.476, 597 107.476 C 553.825 107.476, 536.163 107.599, 557.750 107.750 M 690.750 107.743 C 694.737 107.932, 701.263 107.932, 705.250 107.743 C 709.237 107.553, 705.975 107.397, 698 107.397 C 690.025 107.397, 686.763 107.553, 690.750 107.743 M 753.199 107.744 C 757.984 107.927, 766.084 107.928, 771.199 107.746 C 776.315 107.564, 772.400 107.414, 762.500 107.413 C 752.600 107.412, 748.415 107.561, 753.199 107.744 M 798.250 107.745 C 803.063 107.928, 810.938 107.928, 815.750 107.745 C 820.563 107.561, 816.625 107.411, 807 107.411 C 797.375 107.411, 793.438 107.561, 798.250 107.745 M 862.199 107.744 C 866.984 107.927, 875.084 107.928, 880.199 107.746 C 885.315 107.564, 881.400 107.414, 871.500 107.413 C 861.600 107.412, 857.415 107.561, 862.199 107.744 M 913.250 107.746 C 919.163 107.923, 928.837 107.923, 934.750 107.746 C 940.663 107.569, 935.825 107.425, 924 107.425 C 912.175 107.425, 907.337 107.569, 913.250 107.746 M 997.199 107.744 C 1001.984 107.927, 1010.084 107.928, 1015.199 107.746 C 1020.315 107.564, 1016.400 107.414, 1006.500 107.413 C 996.600 107.412, 992.415 107.561, 997.199 107.744" stroke="none" fill="#dc8484" fill-rule="evenodd"></path> <path d="M 45 0.691 C 40.766 1.400, 32.724 4.164, 28 6.535 C 16.979 12.066, 6.590 23.838, 2.438 35.500 C 0.181 41.842, -0.674 61.437, 0.964 69.324 C 4.708 87.359, 20.668 103.368, 40.045 108.525 C 48.145 110.680, 119.070 110.654, 127.369 108.492 C 140.259 105.135, 152.134 97.044, 158.780 87.091 C 165.176 77.514, 167.151 71.196, 167.718 58.500 C 168.576 39.298, 164.083 27.018, 152.070 15.729 C 144.013 8.158, 137.606 4.585, 127.415 1.978 C 120.352 0.172, 116.544 0.012, 83.590 0.136 C 63.741 0.211, 46.375 0.461, 45 0.691 M 47.978 5.932 C 20.330 9.718, 3.068 31.515, 5.555 59.500 C 6.601 71.278, 8.846 77.846, 13.371 82.371 L 17.377 86.377 18.556 81.139 C 19.205 78.258, 21.347 73.561, 23.316 70.700 C 27.406 64.759, 30 59.031, 30 55.941 C 30 54.773, 28.432 51.986, 26.515 49.746 C 20.149 42.310, 20.816 35.850, 28.608 29.465 C 33.171 25.726, 34.078 22.882, 31.965 18.934 C 31.079 17.279, 31.266 17, 33.265 17 C 36.389 17, 38 18.791, 38 22.266 C 38 26.013, 36.565 28.565, 32.403 32.220 C 29.532 34.740, 29 35.874, 29 39.469 C 29 42.238, 29.711 44.635, 31.032 46.313 L 33.064 48.896 36.568 46.518 C 40.506 43.846, 50.072 40.527, 66.866 36.006 C 73.118 34.323, 79.193 32.449, 80.366 31.842 C 81.540 31.235, 85.675 27.685, 89.557 23.953 C 95.195 18.532, 97.725 16.845, 102.142 15.561 C 109.439 13.440, 122.191 13.150, 128.497 14.962 C 135.141 16.872, 142.143 23.801, 144.660 30.957 L 146.500 36.190 152.494 35.518 C 155.791 35.148, 158.636 34.697, 158.818 34.516 C 159.431 33.902, 156.141 28.358, 152.220 23.398 C 147.154 16.989, 139.228 11.598, 129.944 8.248 L 122.500 5.562 88 5.369 C 69.025 5.262, 51.015 5.516, 47.978 5.932 M 175.573 55.251 C 170.113 82.338, 165.443 105.086, 165.196 105.802 C 164.829 106.863, 173.994 107.048, 214.623 106.802 C 262.983 106.509, 264.637 106.436, 269 104.386 C 277.487 100.398, 279.724 96.354, 283.046 78.988 C 285.803 64.578, 284.929 58.929, 279.028 53.028 C 272.299 46.299, 261.141 44.081, 233.750 44.031 C 224.537 44.014, 217.021 43.663, 217.046 43.250 C 217.071 42.837, 217.877 38.675, 218.838 34 L 220.584 25.500 251.729 25.236 C 280.286 24.994, 282.919 24.827, 283.411 23.236 C 283.958 21.469, 287 7.227, 287 6.435 C 287 6.196, 264.163 6, 236.250 6.001 L 185.500 6.001 175.573 55.251 M 305.590 7.750 C 305.291 8.713, 300.594 31.438, 295.153 58.250 L 285.260 107 334.111 107 L 382.962 107 383.489 104.750 C 385.082 97.950, 388 82.516, 388 80.890 C 388 79.079, 386.749 79, 357.893 79 C 332.207 79, 327.867 78.790, 328.334 77.571 C 328.636 76.785, 329.184 74.535, 329.553 72.571 L 330.223 69 354.544 69 C 376.849 69, 378.907 68.855, 379.367 67.250 C 379.643 66.287, 380.603 61.675, 381.500 57 C 382.397 52.325, 383.357 47.712, 383.633 46.750 C 384.101 45.117, 382.486 45, 359.500 45 C 336.517 45, 334.898 44.883, 335.358 43.250 C 335.629 42.288, 336.145 40.038, 336.505 38.250 L 337.159 35 367.020 35 C 384.239 35, 397.124 34.608, 397.454 34.075 C 398.104 33.022, 403 9.443, 403 7.362 C 403 6.231, 394.779 6, 354.567 6 C 309.315 6, 306.099 6.115, 305.590 7.750 M 419.569 53.739 C 406.957 80.007, 396.033 102.737, 395.293 104.250 L 393.949 107 415.224 106.971 L 436.500 106.942 446.943 83.911 C 452.686 71.244, 457.649 60.717, 457.972 60.518 C 458.294 60.318, 461.749 70.583, 465.650 83.328 L 472.742 106.500 493.871 106.770 C 510.452 106.982, 514.986 106.766, 514.937 105.770 C 514.902 105.071, 507.340 82.450, 498.133 55.500 L 481.392 6.500 461.946 6.239 L 442.500 5.977 419.569 53.739 M 539.502 8.250 C 539.208 9.488, 534.687 31.650, 529.457 57.500 C 524.227 83.350, 519.749 105.063, 519.505 105.750 C 519.154 106.743, 535.152 107, 597.356 107 L 675.649 107 685.408 58.750 C 690.776 32.212, 695.406 9.478, 695.697 8.229 L 696.227 5.958 675.908 6.229 L 655.589 6.500 654.299 13 C 653.590 16.575, 650.234 33.112, 646.842 49.750 L 640.675 80 632.338 80 C 627.536 80, 624 79.583, 624 79.016 C 624 78.475, 627.150 62.493, 631 43.500 C 634.850 24.507, 638 8.291, 638 7.463 C 638 6.164, 635.289 5.995, 618.250 6.229 L 598.500 6.500 591.088 43.250 L 583.676 80 575.338 80 C 568.711 80, 567 79.702, 567 78.546 C 567 77.747, 570.150 61.687, 574 42.858 C 577.850 24.029, 581 8.033, 581 7.312 C 581 6.272, 576.751 6, 560.519 6 C 540.105 6, 540.036 6.007, 539.502 8.250 M 704.511 8.250 C 702.876 15.226, 685 104.404, 685 105.585 C 685 106.737, 687.587 107, 698.939 107 L 712.878 107 732.189 90.088 C 742.810 80.786, 751.574 73.248, 751.665 73.338 C 751.823 73.493, 746.599 100.089, 745.495 104.750 L 744.962 107 762.481 107 C 772.116 107, 780.002 106.662, 780.004 106.250 C 780.006 105.838, 784.506 83.522, 790.004 56.659 C 795.502 29.797, 800 7.410, 800 6.909 C 800 6.409, 793.818 5.988, 786.250 5.974 L 772.500 5.948 752.871 26.224 L 733.243 46.500 737.092 28 C 739.209 17.825, 740.954 8.713, 740.970 7.750 C 740.998 6.147, 739.488 6, 723.019 6 C 705.195 6, 705.034 6.020, 704.511 8.250 M 810.484 7.250 C 810.235 7.938, 805.756 29.650, 800.532 55.500 C 795.307 81.350, 790.792 103.513, 790.497 104.750 L 789.962 107 806.898 107 L 823.834 107 824.834 102.250 C 825.384 99.638, 827.061 91.313, 828.559 83.750 L 831.285 70 846.142 70 C 857.916 70, 861 70.279, 861 71.344 C 861 72.547, 855.823 99.131, 854.494 104.750 L 853.962 107 871.373 107 L 888.783 107 889.391 104.579 C 890.693 99.391, 909 8.615, 909 7.346 C 909 6.270, 905.532 6, 891.694 6 L 874.388 6 872.624 15.250 C 871.653 20.337, 869.929 28.888, 868.792 34.250 L 866.725 44 851.863 44 C 843.688 44, 837 43.626, 837 43.169 C 837 42.712, 838.575 34.536, 840.500 25 C 842.425 15.464, 844 7.288, 844 6.831 C 844 6.374, 836.561 6, 827.469 6 C 815.152 6, 810.822 6.319, 810.484 7.250 M 927.553 55.229 C 914.478 82.328, 903.553 105.072, 903.276 105.770 C 902.875 106.778, 907.167 106.985, 924.066 106.770 L 945.362 106.500 948.369 99.250 L 951.375 92 968.037 92 L 984.699 92 986.665 99.250 L 988.632 106.500 1006.391 106.773 L 1024.150 107.047 1023.435 104.773 C 1023.042 103.523, 1015.412 80.900, 1006.479 54.500 L 990.238 6.500 970.782 6.229 L 951.325 5.959 927.553 55.229 M 155.566 38.625 C 148.112 41.273, 147.702 42.140, 148.486 53.629 C 149.156 63.459, 149.107 63.812, 146.866 65.382 C 143.815 67.518, 141.285 67.429, 139.852 65.135 C 138.430 62.857, 135 63.478, 135 66.013 C 135 68.257, 141.441 74, 143.958 74 C 144.997 74, 147.887 75.557, 150.380 77.460 L 154.914 80.921 158.207 74.233 C 161.463 67.620, 161.500 67.387, 161.500 53.324 C 161.500 45.135, 161.076 38.705, 160.500 38.165 C 159.874 37.578, 158.030 37.750, 155.566 38.625 M 966.635 56.653 C 964.620 61.412, 963.150 65.483, 963.368 65.701 C 963.585 65.919, 966.670 65.962, 970.222 65.798 L 976.680 65.500 974.156 56.750 C 972.767 51.938, 971.331 48, 970.964 48 C 970.597 48, 968.649 51.894, 966.635 56.653 M 89.324 67.439 C 87.027 68.158, 83.515 69.755, 81.518 70.989 C 77.968 73.183, 77.761 73.196, 72.129 71.616 C 68.961 70.727, 63.473 69.996, 59.934 69.991 C 53.983 69.983, 53.312 70.209, 51 73.011 C 48.752 75.735, 47.674 76.134, 40.295 76.971 C 30.494 78.083, 26.315 80.027, 24.504 84.315 C 23.189 87.427, 23.225 87.518, 26.091 88.282 C 27.705 88.712, 54.332 88.937, 85.262 88.782 C 137.702 88.519, 141.790 88.373, 145.792 86.625 C 149.845 84.853, 149.992 84.649, 148.441 82.934 C 145.900 80.127, 138.333 78, 130.887 78 C 122.698 78, 119.850 77.005, 114 72.098 C 111.525 70.021, 108.517 67.800, 107.316 67.161 C 104.452 65.639, 94.597 65.791, 89.324 67.439 M 211.151 72.600 C 210.518 75.753, 209.999 78.821, 209.999 79.417 C 209.998 80.162, 215.105 80.408, 226.385 80.204 C 240.313 79.953, 243.003 79.653, 244.308 78.204 C 246.700 75.550, 247.275 71.754, 245.627 69.500 C 244.290 67.670, 242.809 67.473, 228.234 67.183 L 212.303 66.867 211.151 72.600" stroke="none" fill="#c42c24" fill-rule="evenodd"></path> </svg> 