<?xml version="1.0" encoding="UTF-8"?> <svg xmlns="http://www.w3.org/2000/svg" width="360" height="56" viewBox="0 0 360 56"> <g fill="none"> <path fill="#004187" d="M355.62 3.57V2.41h1.1c.45 0 .97.06.97.58 0 .7-.86.58-1.38.58h-.7zm1.32.4c.64 0 1.16-.28 1.16-1.04 0-.64-.35-.99-1.33-.99h-1.62v3.72h.4V3.98h.87l1.04 1.68h.52l-1.04-1.68zm-.52 3.2a3.37 3.37 0 003.35-3.42 3.37 3.37 0 00-6.75 0 3.42 3.42 0 003.4 3.43zm0-.4a3 3 0 110-5.99 2.97 2.97 0 012.94 2.97 2.94 2.94 0 01-2.94 3.02zM231.06 24.84c-1.62 6.22-3.3 7.15-7.85 7.15-4.67 0-5.6-.4-3.86-7.15 1.38-5.46 1.96-7.2 7.55-7.2 5.89.06 5.54 1.86 4.16 7.2zm6.52-23.83l-3.87 14.01h-.46c-.86-3.54-4.44-4.24-8.54-4.24-9.29 0-13.73 3.37-15.92 11.74l-1.62 6.28c-1.9 7.32 2.02 10.11 10.21 10.11 4.85 0 8.66-.93 11.02-5.11h.23l-1.27 5h11.31L248.77.95h-11.2V1zM279.8 38.8h-11.48l7.44-27.96h11.42zm8.13-30.93h-11.36l1.79-6.91h11.48zm30.29 19.7c-1.33 5.12-3.17 7.97-6.17 9.48-3 1.57-7.16 1.86-13.16 1.86-13.15 0-15.4-3.2-12.63-14.06 2.42-9.36 6-14.13 19.85-14.13 9.75 0 16.2.81 13.67 10.64H308.7c.46-1.46.46-2.39-.17-2.97-.64-.58-1.9-.81-4.21-.81-3.93 0-5.37.93-6.98 7.2-1.68 6.46-.93 7.16 3.28 7.16 5.02 0 5.6-1 6.47-4.42h11.13M121.85 12.7c1.1-3.84-3-3.78-6.7-3.78-8.94 0-9.8 2.2-11.54 8.31l-1.67 6.16c-1.79 6.69.87 7.38 7.39 7.38 6.34 0 8.36-1.16 9.75-6.39h-8.66l1.85-6.98h21.35l-1.8 6.63c-3.4 12.73-8.01 15.06-24.68 15.06-14.72 0-21.64-2.04-18.35-14.25l2.6-9.76C94.72 2.58 103.72.72 117.4.72c12.06 0 20.66.06 17.14 12.04h-12.7m213.18 3.42h.29c2.7-4.35 6.4-5.46 11.65-5.46 7.5 0 10.21 2.9 8.66 8.78l-5.08 19.24h-11.02l4.5-17.15c.64-2.67.06-4.01-3.58-4.01-4.96 0-6.46 2.44-7.32 5.75l-4.04 15.4h-10.96L328.27.9h11.02l-4.27 15.28m-177.75 8.66c-1.56 6-2.37 7.15-7.56 7.15-5.36 0-5.71-1.16-4.15-7.15 1.5-5.98 2.48-7.2 7.84-7.2 5.2.06 5.43 1.22 3.87 7.2m-2.25-14.06c-14.2 0-17.65 2.85-20.6 14.12-2.82 11.05-.57 14.07 13.33 14.07 14.3 0 17.71-2.73 20.65-14.07 3-11.68.87-14.12-13.38-14.12m39.11 14.06c-1.55 6-2.36 7.15-7.55 7.15-5.37 0-5.72-1.16-4.22-7.15 1.56-5.98 2.54-7.2 7.85-7.2 5.25.06 5.48 1.22 3.93 7.2m-2.25-14.06c-14.14 0-17.66 2.85-20.6 14.12-2.83 11.05-.58 14.07 13.33 14.07 14.07 0 17.7-2.73 20.65-14.07 3-11.68.86-14.12-13.39-14.12"></path> <path fill="#E60012" d="M38.42 12.52c-.8 3.03-2.02 3.6-6.4 3.6h-9l1.85-6.85h10.5c3.46.11 3.63.99 3.05 3.25m-3.05 14.19c-.81 3.08-2.72 3.83-6.75 3.83h-9.4l1.95-7.38h9.7c3.98 0 5.3.46 4.5 3.54m3.8-25.69H14.65L4.5 38.85h24.8c9.93 0 15.58-1.28 18.06-10.52 1.27-4.76.99-8.13-5.82-8.48l.11-.41c6.4-.81 8.43-3.9 9.7-8.72 2.25-8.25-2.89-9.7-12.18-9.7m27.81 15.63h19.04l-2.2 8.25H64.86l-3.7 13.95H48.63L58.8 1.01h33.06l-2.2 8.2H69z"></path> <path fill="#004187" d="M258.23 22.29l-4.33 16.56h-11.42l7.44-27.9h11.02l-1.21 4.54s2.88-4.54 10.1-4.54h3.34l-1.9 7.04h-7.5c-2.54.11-4.62 1.04-5.54 4.3m55.15 33.36l2.31-8.48H2.25L0 55.65zm7.27-11.16h-3.4l.35-1.16h7.96l-.35 1.16h-3.34l-3.12 11.28h-1.21zm5.95-1.16h1.1l-.41 1.45h-1.1l.4-1.45zm-1.04 3.66h1.1l-2.43 8.78h-1.1l2.43-8.78zm3.23 0h1.1l-.3 1.05h.06c.64-.82 1.27-1.22 2.37-1.22 1.38 0 1.85.58 1.38 2.38l-.17.7h-.98c.46-1.63.4-2.04-.86-2.04-1.1 0-1.85.58-2.14 1.8l-1.67 6.1h-1.1l2.3-8.77m11.14 4.65l.35-1.28c.63-2.38.52-3.49-2.08-3.49-2.65 0-3.46.88-4.5 4.54-.98 3.6-.86 4.53 1.96 4.53 2.6 0 3.23-.7 3.7-2.44l.11-.35h-1.1c-.46 1.75-.86 1.75-2.6 1.75-1.5 0-1.66-.53-1.14-2.45l.23-.8h5.07zm-4.79-1.1c.52-1.86.81-2.68 2.72-2.68 1.96 0 1.73.82 1.2 2.68h-3.92zm7.27 2.5c-.46 1.5-.28 1.86 1.33 1.86 1.79 0 2.13-.24 2.54-1.75.35-1.16.23-1.28-1.79-1.33-2.13-.12-2.65-.47-2.13-2.39.52-1.86 1.03-2.56 3.63-2.56 2.54 0 2.88.59 2.37 2.45h-1.04c.4-1.34.05-1.46-1.62-1.46-1.5 0-1.84.18-2.19 1.51-.35 1.22-.23 1.34 1.56 1.46 2.54.17 2.88.35 2.36 2.26-.57 2.1-1.15 2.8-3.98 2.8-2.02 0-2.88-.24-2.13-2.85h1.1"></path> </g> </svg> 