<?xml version="1.0" encoding="UTF-8"?> <svg xmlns="http://www.w3.org/2000/svg" width="429.9" height="43.6" viewBox="0 0 429.9 43.6" xml:space="preserve"> <path fill="#27509B" d="M157.1 41.9c-.9.2-7.9 1.5-15.2 1.7-13.1.4-24.6-4.9-24.7-14.4-.2-16.4 16.4-25.4 28.7-27.9 5.5-1.1 16.1-2.4 26.6.2l-6.1 14.7c-1.8-4-6.3-4.1-8.1-4.1-4.5-.1-8.2 1.1-10.9 2.3-6.2 2.8-11.6 11.9-2.8 15.4 4.9 1.9 11 .4 17.5-.6l-5 12.7zM413 1l-10.5 28.6c.1-2.9.7-14.3 1.1-20.8.1-2.7-.4-4.8-1.7-6.1-1.6-1.7-3.6-1.7-3.7-1.7h-23.5l-15.4 41.7h17l10.9-29.6-1.3 29.6h28.6L429.9 1H413zm-87.9 27.9h-19.8L315.5 1h-19.6l-15.4 41.7H320l5.1-13.8zm-44.3-17L284.9 1h-42.2l-15.3 41.7H270l4.1-11.2h-23.5l1.7-4.7h22l3.8-10.2h-22l1.7-4.7h23zM216 42.7 231.3 1h-19.2l-5.6 15h-10.1l5.5-15h-19.3l-15.3 41.7h19.2l5.3-14.1h10.1l-5.2 14.1H216zm-113.5 0L117.9 1H97.7L82.3 42.7h20.2zm-31.6 0L86.3 1H57.7L42.9 23.4s.9-11.7 1.2-14.6c.2-2.1-.1-7.9-5.3-7.9H15.4L0 42.7h18.3l11.1-30.2-2.3 30.2h16.3l20-29.7-10.9 29.7h18.4zm277 0L363.2 1H343l-15.4 41.7h20.3z"></path> </svg> 