<?xml version="1.0" encoding="UTF-8"?> <svg xmlns="http://www.w3.org/2000/svg" width="2360" height="495" viewBox="0 0 2360 495"> <path d="M 542 5 L 537.814 10 486.439 10 L 435.064 10 432.599 18.250 C 431.243 22.788, 426.918 37.525, 422.989 51 C 388.164 170.420, 370.210 228.516, 364.764 239.411 C 361.036 246.868, 353.155 255.262, 347.156 258.167 C 342.927 260.214, 341.310 260.381, 328.082 260.138 C 318.996 259.971, 312.462 259.384, 310.487 258.559 C 307.314 257.233, 304 252.012, 304 248.338 C 304 247.315, 317.950 193.925, 335 129.693 C 352.050 65.462, 366 12.479, 366 11.954 C 366 11.360, 345.620 11, 312.039 11 L 258.077 11 257.112 14.750 C 252.552 32.475, 233.939 101.475, 225.888 130.500 C 206.911 198.915, 194.068 240.158, 189.790 246.421 C 181.946 257.903, 176.961 260, 157.500 260 C 135.923 260, 129.422 256.784, 130.243 246.515 C 130.464 243.757, 146.024 189.653, 164.822 126.285 C 183.620 62.918, 199 10.830, 199 10.535 C 199 10.241, 174.465 10, 144.479 10 L 89.957 10 88.977 12.250 C 87.756 15.051, -0 305.906, -0 307.151 C -0 307.688, 75.439 307.931, 185.750 307.749 C 392.941 307.408, 377.291 307.943, 399.856 300.432 C 427.264 291.309, 449.165 274.482, 465.554 249.957 C 477.211 232.512, 478.853 227.975, 510.969 124.500 C 527.528 71.150, 541.543 26.038, 542.115 24.250 L 543.155 21 915.828 20.969 L 1288.500 20.938 1295.500 12.785 C 1299.350 8.301, 1303.320 3.590, 1304.323 2.316 L 1306.145 0 926.166 -0 L 546.186 -0 542 5 M 1437.450 11.235 C 1433.077 16.314, 1428.447 21.714, 1427.161 23.235 L 1424.822 26 1846.161 25.965 L 2267.500 25.931 2275 17.350 C 2279.125 12.630, 2283.770 7.246, 2285.323 5.384 L 2288.146 2 1866.772 2 L 1445.399 2 1437.450 11.235 M 1306.127 28.250 C 1302.225 40.225, 1219 307.858, 1219 308.431 C 1219 308.749, 1270.834 308.894, 1334.188 308.754 L 1449.375 308.500 1454.511 288 C 1457.335 276.725, 1459.958 266.266, 1460.340 264.758 L 1461.034 262.016 1401.742 261.758 L 1342.451 261.500 1379.719 142 C 1400.217 76.275, 1416.991 22.387, 1416.994 22.250 C 1416.997 22.113, 1392.512 22, 1362.582 22 L 1308.163 22 1306.127 28.250 M 797 57.427 C 751.340 65.630, 727.255 89.749, 721.035 133.500 C 717.113 161.083, 723.779 174.173, 759.214 208.476 C 784.706 233.153, 787.816 238.017, 784.496 248.013 C 781.101 258.234, 773.039 263.939, 763.751 262.693 C 756.852 261.768, 746.814 253.687, 737.819 241.818 C 734.249 237.107, 726.801 232.291, 720.020 230.309 C 715.370 228.950, 713.430 228.877, 707.709 229.851 C 691.010 232.695, 682.202 241.993, 680.062 259.035 C 678.449 271.883, 682.322 280.556, 693.280 288.633 C 709.361 300.486, 735.405 309.148, 763.783 312.081 C 790.104 314.801, 824.374 307.437, 844.029 294.837 C 857.509 286.195, 866.796 274.625, 871.588 260.500 C 873.897 253.696, 874.311 250.781, 874.361 241 C 874.499 213.378, 861.248 188.020, 829.462 155.083 C 813.237 138.270, 810.779 135, 808.975 127.821 C 807.417 121.627, 808.877 117.247, 814.059 112.566 C 817.623 109.346, 818.563 109.001, 823.753 109.010 C 833.001 109.025, 838.434 112.224, 852.400 125.873 C 859.055 132.378, 865.511 138.232, 866.746 138.883 C 877.600 144.601, 898.177 140.188, 907.193 130.208 C 912.014 124.871, 913.338 120.356, 912.789 111.119 C 911.952 97.035, 906.143 89.022, 889.544 79.055 C 873.820 69.613, 860.525 63.772, 844.844 59.416 C 837.098 57.265, 832.849 56.758, 820 56.450 C 809.801 56.206, 801.935 56.540, 797 57.427 M 1627 59.651 C 1598.157 64.025, 1580.687 70.024, 1563.582 81.428 C 1548.767 91.304, 1534.235 108.237, 1527.403 123.583 C 1520.283 139.578, 1468 302.518, 1468 308.714 C 1468 309.774, 1476.259 309.972, 1511.739 309.761 L 1555.479 309.500 1570.640 260 L 1585.802 210.500 1613.901 210.234 C 1629.355 210.088, 1642 210.249, 1642 210.592 C 1642 211.169, 1619.577 292.601, 1616.483 303.261 L 1615.101 308.021 1657.686 307.761 L 1700.270 307.500 1724.111 231.546 C 1737.223 189.771, 1748.728 151.971, 1749.676 147.546 C 1751.830 137.499, 1752.070 116.777, 1750.123 109 C 1748.054 100.736, 1744.431 93.696, 1739.323 88.014 C 1726.367 73.604, 1703.492 63.277, 1677.500 60.104 C 1669.228 59.095, 1632.825 58.768, 1627 59.651 M 546.318 61.613 C 545.978 62.500, 530.559 118.413, 512.055 185.863 L 478.410 308.500 571.366 308.755 C 622.493 308.896, 664.441 308.892, 664.585 308.748 C 664.730 308.604, 666.832 297.801, 669.257 284.743 L 673.667 261 629.833 261 C 605.725 261, 586 260.852, 586 260.671 C 586 260.490, 589.150 248.165, 593 233.282 C 596.850 218.399, 600 205.947, 600 205.611 C 600 205.275, 613.950 205, 631 205 C 648.050 205, 662.031 204.887, 662.070 204.750 C 662.108 204.613, 663.604 194.488, 665.393 182.250 L 668.647 160 640.716 160 C 617.558 160, 612.875 159.767, 613.309 158.638 C 613.596 157.889, 617.044 146.301, 620.970 132.888 C 624.897 119.475, 628.340 107.713, 628.622 106.750 C 629.101 105.117, 632.150 105, 674.356 105 L 719.578 105 724.743 83.329 C 727.583 71.410, 729.676 61.285, 729.395 60.829 C 729.113 60.373, 687.944 60, 637.910 60 C 555.137 60, 546.881 60.145, 546.318 61.613 M 1792.121 65.250 C 1791.553 67.037, 1776.426 122.050, 1758.506 187.500 C 1740.587 252.950, 1725.685 307.292, 1725.392 308.261 C 1724.888 309.925, 1727.213 310.007, 1768.071 309.761 L 1811.284 309.500 1822.892 271.753 C 1829.276 250.993, 1834.795 234.005, 1835.156 234.003 C 1835.517 234.002, 1851.410 250.650, 1870.473 271 L 1905.134 308 2050.421 308 L 2195.709 308 2201.812 284.335 C 2205.168 271.320, 2207.682 260.295, 2207.398 259.835 C 2207.114 259.376, 2187.285 259, 2163.334 259 C 2128.915 259, 2119.883 258.738, 2120.250 257.750 C 2120.506 257.063, 2122.910 244.912, 2125.593 230.750 L 2130.472 205 2162.585 205 L 2194.697 205 2200.491 183.750 C 2203.677 172.063, 2206.498 161.713, 2206.759 160.750 C 2207.203 159.112, 2205.313 159, 2177.117 159 C 2160.552 159, 2147.006 158.887, 2147.014 158.750 C 2147.022 158.613, 2150.325 146.575, 2154.353 132 L 2161.678 105.500 2208.217 105.240 L 2254.756 104.980 2259.878 84.507 C 2262.695 73.247, 2265 63.576, 2265 63.017 C 2265 62.332, 2215.779 62, 2114.335 62 L 1963.669 62 1914.243 92.076 C 1887.059 108.617, 1864.669 122.002, 1864.487 121.820 C 1864.210 121.543, 1869.029 103.846, 1878.940 68.750 L 1880.846 62 1837 62 L 1793.155 62 1792.121 65.250 M 934.479 64.250 C 928.937 79.368, 917 113.386, 917 114.062 C 917 114.589, 931.669 115.085, 951.774 115.237 L 986.547 115.500 961.331 209.500 C 947.462 261.200, 935.829 304.738, 935.478 306.250 L 934.841 309 977.382 309 L 1019.923 309 1021.298 304.250 C 1022.054 301.637, 1033.659 258.439, 1047.087 208.254 L 1071.500 117.009 1103.072 117.004 L 1134.644 117 1144.322 90.653 C 1149.645 76.162, 1154 64.012, 1154 63.653 C 1154 63.294, 1104.711 63, 1044.469 63 C 957.755 63, 934.842 63.260, 934.479 64.250 M 1637.147 109.023 C 1630.844 110.338, 1624.487 114.423, 1621.196 119.273 C 1617.977 124.016, 1611.754 138.190, 1607.096 151.387 C 1605.393 156.212, 1604 160.349, 1604 160.580 C 1604 160.811, 1616.487 160.997, 1631.750 160.994 L 1659.500 160.988 1664.884 142.117 C 1670.787 121.427, 1670.964 118.236, 1666.452 113.725 C 1665.078 112.350, 1662.051 110.755, 1659.726 110.180 C 1653.283 108.586, 1642.009 108.008, 1637.147 109.023 M 1969.761 152.838 L 1900.021 195.500 1946.761 242.259 C 1984.195 279.708, 1993.643 288.667, 1994.218 287.259 C 1994.613 286.291, 2004.425 249.050, 2016.023 204.500 C 2027.621 159.950, 2037.951 120.463, 2038.978 116.750 C 2040.006 113.037, 2040.543 110.040, 2040.173 110.088 C 2039.803 110.137, 2008.117 129.374, 1969.761 152.838 M 2309.186 268.089 C 2301.418 269.424, 2293.712 273.446, 2286.974 279.685 C 2264.432 300.555, 2270.491 336.917, 2298.741 350.299 C 2305.129 353.324, 2306.133 353.500, 2317.024 353.500 C 2328.132 353.500, 2328.799 353.376, 2335.524 350.065 C 2344.475 345.657, 2351.658 338.473, 2356.065 329.521 C 2359.377 322.792, 2359.500 322.129, 2359.500 311 C 2359.500 299.871, 2359.377 299.208, 2356.065 292.479 C 2347.326 274.726, 2328.269 264.811, 2309.186 268.089 M 2303.460 279.799 C 2291.481 285.586, 2285 296.540, 2285 311 C 2285 324.920, 2291.300 336.055, 2302.377 341.711 C 2309.692 345.447, 2320.382 345.995, 2328.221 343.037 C 2335.456 340.307, 2342.276 333.786, 2345.809 326.220 C 2348.119 321.272, 2348.477 319.218, 2348.465 311 C 2348.454 303.303, 2348.025 300.566, 2346.206 296.580 C 2342.936 289.410, 2337.964 283.843, 2331.864 280.520 C 2327.387 278.080, 2325.095 277.538, 2318 277.239 C 2310.260 276.912, 2308.960 277.141, 2303.460 279.799 M 2300 310.959 L 2300 336.110 2304.750 335.805 L 2309.500 335.500 2309.785 325.250 C 2310.062 315.275, 2310.132 315, 2312.392 315 C 2314.272 315, 2315.920 316.999, 2321.047 325.500 L 2327.380 336 2332.190 336 C 2334.836 336, 2337 335.709, 2337 335.354 C 2337 334.999, 2334.246 330.253, 2330.881 324.807 C 2327.515 319.361, 2324.927 314.779, 2325.131 314.625 C 2325.334 314.471, 2326.918 313.781, 2328.651 313.092 C 2333.593 311.127, 2335.994 307.894, 2336.588 302.405 C 2337.207 296.676, 2335.145 291.850, 2330.679 288.571 C 2328.210 286.759, 2326.114 286.457, 2313.929 286.154 L 2300 285.808 2300 310.959 M 2310 300.500 L 2310 307 2314.935 307 C 2320.239 307, 2324.996 305.603, 2326.214 303.687 C 2327.585 301.532, 2327.032 298.032, 2325 296 C 2323.410 294.410, 2321.667 294, 2316.500 294 L 2310 294 2310 300.500 M 2117.729 347.449 C 2089.552 352.412, 2066.655 365.778, 2058.818 381.838 C 2055.480 388.679, 2055.079 399.465, 2057.942 405.381 C 2062.912 415.648, 2072.870 421.553, 2101.969 431.490 C 2121.468 438.148, 2127.187 440.931, 2128.848 444.569 C 2132.491 452.550, 2120.015 463, 2106.842 463 C 2096.016 463, 2089.280 457.084, 2090.255 448.434 L 2090.754 444 2064.492 444 L 2038.230 444 2037.101 451.750 C 2034.119 472.210, 2045.603 485.771, 2070.957 491.728 C 2076.979 493.143, 2082.834 493.493, 2100 493.466 C 2118.802 493.436, 2122.608 493.153, 2130.330 491.215 C 2160.018 483.765, 2177.568 468.847, 2182.052 447.251 C 2183.900 438.350, 2182.002 432.808, 2174.591 425.464 C 2167.191 418.130, 2160.037 414.523, 2136 406.002 C 2109.725 396.689, 2106.021 393.972, 2109.525 386.588 C 2110.630 384.260, 2112.939 381.945, 2115.880 380.216 C 2119.888 377.860, 2121.583 377.500, 2128.673 377.500 C 2138.982 377.500, 2142.035 379.332, 2143.418 386.344 L 2144.335 391 2169.609 391 C 2183.509 391, 2195.122 390.611, 2195.416 390.135 C 2195.710 389.660, 2196.240 386.808, 2196.594 383.799 C 2198.505 367.535, 2186.365 354.395, 2164 348.520 C 2155.166 346.199, 2128.349 345.579, 2117.729 347.449 M 1508.165 363.957 C 1505.874 372.733, 1504 380.158, 1504 380.457 C 1504 380.756, 1512.775 381, 1523.500 381 C 1537.505 381, 1543 381.323, 1543 382.148 C 1543 382.779, 1536.700 407.285, 1529 436.606 C 1521.300 465.927, 1515 490.386, 1515 490.959 C 1515 491.654, 1523.621 492, 1540.929 492 L 1566.858 492 1568.347 486.750 C 1569.166 483.863, 1575.299 460.575, 1581.976 435 C 1588.652 409.425, 1594.556 386.813, 1595.096 384.750 L 1596.077 381 1615.892 381 L 1635.706 381 1639.853 365.574 C 1642.134 357.090, 1644 349.665, 1644 349.074 C 1644 348.320, 1624.415 348, 1578.165 348 L 1512.330 348 1508.165 363.957 M 1645.665 419.250 C 1635.373 458.438, 1626.963 490.837, 1626.976 491.250 C 1626.989 491.663, 1638.682 492, 1652.960 492 L 1678.920 492 1680.013 488.250 C 1684.348 473.386, 1716.548 348.881, 1716.158 348.491 C 1715.888 348.221, 1704.127 348, 1690.022 348 L 1664.378 348 1645.665 419.250 M 1752.666 348.750 C 1752.417 349.163, 1744.001 380.775, 1733.962 419 C 1723.924 457.225, 1715.496 489.295, 1715.234 490.267 C 1714.786 491.928, 1716.281 492.019, 1740.033 491.767 L 1765.309 491.500 1771.156 469.082 C 1774.372 456.751, 1777.126 446.540, 1777.276 446.390 C 1777.427 446.240, 1785.334 456.441, 1794.849 469.059 L 1812.149 492 1841.575 492 C 1857.759 492, 1871 491.620, 1871 491.156 C 1871 490.692, 1861.837 479.780, 1850.639 466.906 L 1830.278 443.500 1839.889 441.224 C 1879.194 431.918, 1902.363 399.493, 1889.043 372.436 C 1881.974 358.078, 1867.285 351.116, 1839.596 349.004 C 1824.409 347.845, 1753.336 347.638, 1752.666 348.750 M 1930.093 351.750 C 1929.551 353.813, 1921.209 385.572, 1911.554 422.326 C 1901.899 459.081, 1894 489.794, 1894 490.576 C 1894 491.791, 1902.260 492, 1950.255 492 L 2006.511 492 2010.413 477.250 C 2012.560 469.137, 2014.522 461.712, 2014.775 460.750 C 2015.204 459.111, 2013.245 459, 1983.818 459 L 1952.402 459 1955.445 447 L 1958.488 435 1988.994 434.999 L 2019.500 434.998 2023.680 419.290 C 2025.979 410.651, 2027.640 403.226, 2027.371 402.791 C 2027.102 402.356, 2013.447 402, 1997.027 402 L 1967.171 402 1969.926 391.750 L 1972.681 381.500 2004.179 381.236 L 2035.677 380.972 2039.839 365.029 C 2042.127 356.261, 2044 348.842, 2044 348.543 C 2044 348.244, 2018.592 348, 1987.539 348 L 1931.077 348 1930.093 351.750 M 1789.504 399.250 C 1786.869 409.288, 1784.504 418.063, 1784.249 418.750 C 1783.658 420.347, 1804.425 420.479, 1814 418.940 C 1830.052 416.360, 1841 407.253, 1841 396.482 C 1841 385.481, 1830.877 381.018, 1805.898 381.006 L 1794.296 381 1789.504 399.250" stroke="none" fill="#fcdc04" fill-rule="evenodd"></path> </svg> 